<?xml version="1.0" standalone="no"?>
<!DOCTYPE svg PUBLIC "-//W3C//DTD SVG 20010904//EN"
 "http://www.w3.org/TR/2001/REC-SVG-20010904/DTD/svg10.dtd">
<svg version="1.0" xmlns="http://www.w3.org/2000/svg"
 width="700.000000pt" height="700.000000pt" viewBox="0 0 700.000000 700.000000"
 preserveAspectRatio="xMidYMid meet">
<metadata>
Created by potrace 1.11, written by Peter Selinger 2001-2013
</metadata>
<g transform="translate(0.000000,700.000000) scale(0.100000,-0.100000)"
fill="#000000" stroke="none">
<path d="M3277 6924 c-1 -1 -49 -4 -107 -8 -99 -6 -130 -9 -190 -21 -14 -3
-38 -8 -55 -11 -50 -8 -185 -43 -265 -69 -380 -122 -696 -295 -998 -549 -94
-80 -271 -258 -342 -346 -25 -30 -47 -57 -50 -60 -3 -3 -28 -36 -57 -75 -248
-340 -426 -778 -489 -1200 -4 -27 -8 -56 -10 -62 -17 -89 -26 -423 -14 -528
16 -130 19 -151 55 -315 9 -40 47 -175 73 -260 115 -367 277 -690 346 -690 17
0 149 103 230 179 26 25 123 119 215 207 291 283 345 319 414 282 51 -27 70
-79 50 -138 -24 -71 -91 -151 -338 -408 -222 -231 -249 -259 -318 -345 -59
-73 -81 -115 -79 -150 6 -80 175 -377 338 -593 62 -82 107 -119 142 -116 41 3
181 126 491 428 287 280 440 419 486 444 68 36 172 -73 143 -149 -21 -56 -119
-163 -563 -616 -168 -171 -305 -322 -336 -373 -17 -26 -17 -30 0 -80 22 -65
66 -128 177 -257 87 -101 439 -462 550 -565 576 -532 839 -508 1483 130 160
160 318 331 441 480 34 41 69 84 78 95 121 145 302 384 410 539 86 124 234
349 244 372 6 13 15 24 20 24 4 0 8 5 8 11 0 6 13 29 28 52 16 23 36 56 44 72
8 17 41 75 73 130 32 55 90 163 130 240 39 77 78 151 85 165 8 14 15 27 15 30
1 3 8 21 17 40 208 465 301 775 336 1120 12 109 12 354 2 445 -5 39 -11 97
-15 130 -3 33 -9 69 -12 80 -3 11 -7 29 -9 40 -51 356 -255 819 -509 1155
-279 368 -686 692 -1085 863 -19 8 -57 25 -85 37 -90 41 -338 117 -435 135
-85 15 -133 21 -300 40 -76 9 -456 24 -463 19z m873 -1360 c104 -31 188 -100
505 -418 226 -226 385 -406 435 -489 22 -38 25 -52 24 -142 -3 -195 -6 -199
-869 -1060 -550 -549 -624 -621 -746 -721 -162 -135 -222 -161 -337 -151 -58
6 -76 13 -132 52 -209 144 -723 638 -830 798 -64 96 -80 239 -40 355 29 83
104 164 705 766 504 504 824 814 987 956 77 66 189 86 298 54z"/>
<path d="M3728 4958 c-32 -11 -48 -51 -48 -122 1 -97 48 -162 301 -416 153
-153 241 -230 292 -256 42 -22 155 -26 195 -7 57 27 35 63 -171 288 -176 192
-482 491 -527 514 -8 5 -27 4 -42 -1z"/>
<path d="M3500 4942 c-16 -5 -132 -96 -194 -152 -89 -79 -465 -457 -525 -525
-62 -73 -111 -138 -111 -150 0 -14 77 -37 123 -37 92 1 149 44 427 320 289
287 333 347 325 449 -4 62 -24 102 -45 95z"/>
<path d="M4320 3991 c-60 -19 -125 -74 -300 -250 -178 -178 -311 -328 -367
-412 -20 -31 -26 -51 -25 -94 1 -90 26 -105 95 -56 110 78 636 605 741 744 26
34 28 40 14 53 -18 18 -120 28 -158 15z"/>
<path d="M2728 3940 c-39 -7 -87 -34 -89 -50 -1 -6 -2 -16 -3 -22 -7 -43 87
-160 299 -376 180 -184 359 -342 422 -373 96 -46 123 -30 131 81 8 122 -27
182 -222 379 -213 215 -323 314 -388 347 -35 18 -94 23 -150 14z"/>
</g>
</svg>
